{
	"asset":{
		"version":"2.0",
		"generator":"Created using the official Cinema 4D glTF Exporter 1.000x290161"
	},
	"scenes":[{
		"nodes":[0,
		1,
		2,
		3,
		4,
		5,
		6,
		7]
	}],
	"nodes":[{
		"name":"Cylinder",
		"translation":[0.0,
		0.10000000149011612,
		0.0],
		"rotation":[0.0,
		0.0,
		0.0,
		-1.0],
		"scale":[1.0,
		1.0,
		1.0],
		"mesh":0
	},
	{
		"name":"Cylinder.1",
		"translation":[0.0,
		0.25,
		0.0],
		"rotation":[0.0,
		0.0,
		0.0,
		-1.0],
		"scale":[1.0,
		1.0,
		1.0],
		"mesh":1
	},
	{
		"name":"Cylinder.2",
		"translation":[0.0,
		0.6217038631439209,
		0.0],
		"rotation":[0.0,
		0.0,
		0.0,
		-1.0],
		"scale":[1.0,
		1.0,
		1.0],
		"mesh":2
	},
	{
		"name":"Cylinder.7",
		"translation":[0.0,
		0.7514339685440064,
		0.0],
		"rotation":[0.0,
		0.0,
		0.0,
		-1.0],
		"scale":[1.0,
		1.0,
		1.0],
		"mesh":3
	},
	{
		"name":"Cylinder.5",
		"translation":[0.0,
		1.0463409423828126,
		0.0],
		"rotation":[0.0,
		0.0,
		0.0,
		-1.0],
		"scale":[1.0,
		1.0,
		1.0],
		"mesh":4
	},
	{
		"name":"Cylinder.3",
		"translation":[0.0,
		0.7514339685440064,
		0.0],
		"rotation":[0.0,
		0.0,
		0.0,
		-1.0],
		"scale":[1.0,
		1.0,
		1.0],
		"mesh":5
	},
	{
		"name":"Cylinder.4",
		"translation":[0.0,
		0.7514339685440064,
		0.0],
		"rotation":[0.0,
		0.0,
		0.0,
		-1.0],
		"scale":[1.0,
		1.0,
		1.0],
		"mesh":6
	},
	{
		"name":"Cylinder.6",
		"translation":[0.0,
		1.1275891065597535,
		0.0],
		"rotation":[0.0,
		0.0,
		0.0,
		-1.0],
		"scale":[1.0,
		1.0,
		1.0],
		"mesh":7
	}],
	"meshes":[{
		"primitives":[{
			"attributes":{
				"POSITION":1,
				"NORMAL":2,
				"TEXCOORD_0":3
			},
			"indices":0,
			"material":0
		}]
	},
	{
		"primitives":[{
			"attributes":{
				"POSITION":5,
				"NORMAL":6,
				"TEXCOORD_0":7
			},
			"indices":4,
			"material":0
		}]
	},
	{
		"primitives":[{
			"attributes":{
				"POSITION":9,
				"NORMAL":10,
				"TEXCOORD_0":11
			},
			"indices":8,
			"material":0
		}]
	},
	{
		"primitives":[{
			"attributes":{
				"POSITION":13,
				"NORMAL":14,
				"TEXCOORD_0":15
			},
			"indices":12,
			"material":0
		}]
	},
	{
		"primitives":[{
			"attributes":{
				"POSITION":17,
				"NORMAL":18,
				"TEXCOORD_0":19
			},
			"indices":16,
			"material":1
		}]
	},
	{
		"primitives":[{
			"attributes":{
				"POSITION":21,
				"NORMAL":22,
				"TEXCOORD_0":23
			},
			"indices":20,
			"material":1
		}]
	},
	{
		"primitives":[{
			"attributes":{
				"POSITION":25,
				"NORMAL":26,
				"TEXCOORD_0":27
			},
			"indices":24,
			"material":1
		}]
	},
	{
		"primitives":[{
			"attributes":{
				"POSITION":29,
				"NORMAL":30,
				"TEXCOORD_0":31
			},
			"indices":28,
			"material":1
		}]
	}],
	"accessors":[{
		"count":144,
		"bufferView":0,
		"type":"SCALAR",
		"componentType":5123,
		"byteOffset":0,
		"min":[0],
		"max":[51]
	},
	{
		"count":52,
		"bufferView":1,
		"type":"VEC3",
		"componentType":5126,
		"byteOffset":0,
		"min":[-0.20000000298023225,
		-0.10000000149011612,
		-0.20000000298023225],
		"max":[0.20000000298023225,
		0.10000000149011612,
		0.20000000298023225]
	},
	{
		"count":52,
		"bufferView":1,
		"type":"VEC3",
		"componentType":5126,
		"byteOffset":12,
		"min":[-0.9960350394248962,
		-1.0,
		-0.9960350394248962],
		"max":[0.9960350394248962,
		1.0,
		0.9960350394248962]
	},
	{
		"count":52,
		"bufferView":1,
		"type":"VEC2",
		"componentType":5126,
		"byteOffset":24,
		"min":[0.0,
		0.0],
		"max":[1.0,
		1.0]
	},
	{
		"count":144,
		"bufferView":2,
		"type":"SCALAR",
		"componentType":5123,
		"byteOffset":0,
		"min":[0],
		"max":[51]
	},
	{
		"count":52,
		"bufferView":3,
		"type":"VEC3",
		"componentType":5126,
		"byteOffset":0,
		"min":[-0.30000001192092898,
		-0.05000000074505806,
		-0.30000001192092898],
		"max":[0.30000001192092898,
		0.05000000074505806,
		0.30000001192092898]
	},
	{
		"count":52,
		"bufferView":3,
		"type":"VEC3",
		"componentType":5126,
		"byteOffset":12,
		"min":[-0.9960350394248962,
		-1.0,
		-0.9960350394248962],
		"max":[0.9960350394248962,
		1.0,
		0.9960350394248962]
	},
	{
		"count":52,
		"bufferView":3,
		"type":"VEC2",
		"componentType":5126,
		"byteOffset":24,
		"min":[0.0,
		0.0],
		"max":[1.0,
		1.0]
	},
	{
		"count":144,
		"bufferView":4,
		"type":"SCALAR",
		"componentType":5123,
		"byteOffset":0,
		"min":[0],
		"max":[51]
	},
	{
		"count":52,
		"bufferView":5,
		"type":"VEC3",
		"componentType":5126,
		"byteOffset":0,
		"min":[-0.20000000298023225,
		-0.32499998807907107,
		-0.20000000298023225],
		"max":[0.20000000298023225,
		0.32499998807907107,
		0.20000000298023225]
	},
	{
		"count":52,
		"bufferView":5,
		"type":"VEC3",
		"componentType":5126,
		"byteOffset":12,
		"min":[-0.9960350394248962,
		-1.0,
		-0.9960350394248962],
		"max":[0.9960350394248962,
		1.0,
		0.9960350394248962]
	},
	{
		"count":52,
		"bufferView":5,
		"type":"VEC2",
		"componentType":5126,
		"byteOffset":24,
		"min":[0.0,
		0.0],
		"max":[1.0,
		1.0]
	},
	{
		"count":144,
		"bufferView":6,
		"type":"SCALAR",
		"componentType":5123,
		"byteOffset":0,
		"min":[0],
		"max":[51]
	},
	{
		"count":52,
		"bufferView":7,
		"type":"VEC3",
		"componentType":5126,
		"byteOffset":0,
		"min":[-0.22320745885372163,
		-0.14191919565200807,
		-0.14191919565200807],
		"max":[0.22320745885372163,
		0.14191919565200807,
		0.14191919565200807]
	},
	{
		"count":52,
		"bufferView":7,
		"type":"VEC3",
		"componentType":5126,
		"byteOffset":12,
		"min":[-1.0,
		-0.9960350394248962,
		-0.9960350394248962],
		"max":[1.0,
		0.9960350394248962,
		0.9960350394248962]
	},
	{
		"count":52,
		"bufferView":7,
		"type":"VEC2",
		"componentType":5126,
		"byteOffset":24,
		"min":[0.0,
		0.0],
		"max":[1.0,
		1.0]
	},
	{
		"count":144,
		"bufferView":8,
		"type":"SCALAR",
		"componentType":5123,
		"byteOffset":0,
		"min":[0],
		"max":[51]
	},
	{
		"count":52,
		"bufferView":9,
		"type":"VEC3",
		"componentType":5126,
		"byteOffset":0,
		"min":[-0.20000000298023225,
		-0.10000000149011612,
		-0.20000000298023225],
		"max":[0.20000000298023225,
		0.07918137311935425,
		0.20000000298023225]
	},
	{
		"count":52,
		"bufferView":9,
		"type":"VEC3",
		"componentType":5126,
		"byteOffset":12,
		"min":[-0.8587546348571777,
		-1.0,
		-0.8587546348571777],
		"max":[0.8587546348571777,
		1.0,
		0.8587546348571777]
	},
	{
		"count":52,
		"bufferView":9,
		"type":"VEC2",
		"componentType":5126,
		"byteOffset":24,
		"min":[0.0,
		0.0],
		"max":[1.0,
		1.0]
	},
	{
		"count":144,
		"bufferView":10,
		"type":"SCALAR",
		"componentType":5123,
		"byteOffset":0,
		"min":[0],
		"max":[51]
	},
	{
		"count":52,
		"bufferView":11,
		"type":"VEC3",
		"componentType":5126,
		"byteOffset":0,
		"min":[-0.32499998807907107,
		-0.10601336508989334,
		-0.10601336508989334],
		"max":[0.32499998807907107,
		0.10601336508989334,
		0.10601336508989334]
	},
	{
		"count":52,
		"bufferView":11,
		"type":"VEC3",
		"componentType":5126,
		"byteOffset":12,
		"min":[-1.0,
		-0.9960350394248962,
		-0.9960350394248962],
		"max":[1.0,
		0.9960350394248962,
		0.9960350394248962]
	},
	{
		"count":52,
		"bufferView":11,
		"type":"VEC2",
		"componentType":5126,
		"byteOffset":24,
		"min":[0.0,
		0.0],
		"max":[1.0,
		1.0]
	},
	{
		"count":72,
		"bufferView":12,
		"type":"SCALAR",
		"componentType":5123,
		"byteOffset":0,
		"min":[0],
		"max":[37]
	},
	{
		"count":38,
		"bufferView":13,
		"type":"VEC3",
		"componentType":5126,
		"byteOffset":0,
		"min":[-0.39192309975624087,
		-0.0567246712744236,
		-0.049125004559755328],
		"max":[0.39192309975624087,
		0.0567246712744236,
		0.049125004559755328]
	},
	{
		"count":38,
		"bufferView":13,
		"type":"VEC3",
		"componentType":5126,
		"byteOffset":12,
		"min":[-1.0,
		-0.8660253882408142,
		-1.0],
		"max":[1.0,
		0.8660253882408142,
		1.0]
	},
	{
		"count":38,
		"bufferView":13,
		"type":"VEC2",
		"componentType":5126,
		"byteOffset":24,
		"min":[0.0,
		0.0],
		"max":[1.0,
		1.0]
	},
	{
		"count":72,
		"bufferView":14,
		"type":"SCALAR",
		"componentType":5123,
		"byteOffset":0,
		"min":[0],
		"max":[37]
	},
	{
		"count":38,
		"bufferView":15,
		"type":"VEC3",
		"componentType":5126,
		"byteOffset":0,
		"min":[-0.0567246712744236,
		-0.04323570057749748,
		-0.049125004559755328],
		"max":[0.0567246712744236,
		0.04323570057749748,
		0.049125004559755328]
	},
	{
		"count":38,
		"bufferView":15,
		"type":"VEC3",
		"componentType":5126,
		"byteOffset":12,
		"min":[-0.8660253882408142,
		-1.0,
		-1.0],
		"max":[0.8660253882408142,
		1.0,
		1.0]
	},
	{
		"count":38,
		"bufferView":15,
		"type":"VEC2",
		"componentType":5126,
		"byteOffset":24,
		"min":[0.0,
		0.0],
		"max":[1.0,
		1.0]
	}],
	"bufferViews":[{
		"buffer":0,
		"byteOffset":0,
		"byteLength":288,
		"target":34963
	},
	{
		"buffer":0,
		"byteOffset":288,
		"byteLength":1664,
		"target":34962,
		"byteStride":32
	},
	{
		"buffer":1,
		"byteOffset":0,
		"byteLength":288,
		"target":34963
	},
	{
		"buffer":1,
		"byteOffset":288,
		"byteLength":1664,
		"target":34962,
		"byteStride":32
	},
	{
		"buffer":2,
		"byteOffset":0,
		"byteLength":288,
		"target":34963
	},
	{
		"buffer":2,
		"byteOffset":288,
		"byteLength":1664,
		"target":34962,
		"byteStride":32
	},
	{
		"buffer":3,
		"byteOffset":0,
		"byteLength":288,
		"target":34963
	},
	{
		"buffer":3,
		"byteOffset":288,
		"byteLength":1664,
		"target":34962,
		"byteStride":32
	},
	{
		"buffer":4,
		"byteOffset":0,
		"byteLength":288,
		"target":34963
	},
	{
		"buffer":4,
		"byteOffset":288,
		"byteLength":1664,
		"target":34962,
		"byteStride":32
	},
	{
		"buffer":5,
		"byteOffset":0,
		"byteLength":288,
		"target":34963
	},
	{
		"buffer":5,
		"byteOffset":288,
		"byteLength":1664,
		"target":34962,
		"byteStride":32
	},
	{
		"buffer":6,
		"byteOffset":0,
		"byteLength":144,
		"target":34963
	},
	{
		"buffer":6,
		"byteOffset":144,
		"byteLength":1216,
		"target":34962,
		"byteStride":32
	},
	{
		"buffer":7,
		"byteOffset":0,
		"byteLength":144,
		"target":34963
	},
	{
		"buffer":7,
		"byteOffset":144,
		"byteLength":1216,
		"target":34962,
		"byteStride":32
	}],
	"buffers":[{
		"uri":"data:application/octet-stream;base64,",
		"byteLength":1952
	},
	{
		"uri":"data:application/octet-stream;base64,",
		"byteLength":1952
	},
	{
		"uri":"data:application/octet-stream;base64,",
		"byteLength":1952
	},
	{
		"uri":"data:application/octet-stream;base64,",
		"byteLength":1952
	},
	{
		"uri":"data:application/octet-stream;base64,",
		"byteLength":1952
	},
	{
		"uri":"data:application/octet-stream;base64,",
		"byteLength":1952
	},
	{
		"uri":"data:application/octet-stream;base64,",
		"byteLength":1360
	},
	{
		"uri":"data:application/octet-stream;base64,",
		"byteLength":1360
	}],
	"materials":[{
		"pbrMetallicRoughness":{
			"baseColorFactor":[0.8784313797950745,
			0.6941176652908325,
			0.12156862765550615,
			1.0],
			"metallicFactor":0.0,
			"roughnessFactor":0.5
		},
		"emissiveFactor":[0.0,
		0.0,
		0.0],
		"alphaMode":"OPAQUE",
		"doubleSided":false,
		"name":"Yellow"
	},
	{
		"pbrMetallicRoughness":{
			"baseColorFactor":[0.09803921729326248,
			0.266666680574417,
			0.7843137383460999,
			1.0],
			"metallicFactor":0.0,
			"roughnessFactor":0.5
		},
		"emissiveFactor":[0.0,
		0.0,
		0.0],
		"alphaMode":"OPAQUE",
		"doubleSided":false,
		"name":"Blue"
	}]
}