# WaveFront *.obj file (generated by CINEMA 4D)

mtllib ./fire-hydrant.mtl

v 0 0 0
v 0 20 0
v 20 0 0
v 20 20 0
v 17.32050895690918 0 -10
v 17.32050895690918 20 -10
v 10 0 -17.32050895690918
v 10 20 -17.32050895690918
v 0 0 -20
v 0 20 -20
v -10 0 -17.32050895690918
v -10 20 -17.32050895690918
v -17.32050895690918 0 -10
v -17.32050895690918 20 -10
v -20 0 0
v -20 20 0
v -17.32050895690918 0 10
v -17.32050895690918 20 10
v -10 0 17.32050895690918
v -10 20 17.32050895690918
v 0 0 20
v 0 20 20
v 10 0 17.32050895690918
v 10 20 17.32050895690918
v 17.32050895690918 0 10
v 17.32050895690918 20 10
# 26 vertices

vn 0 -1 0
vn 0 0 0
vn 1 0 0
vn 0.86602544784546 0 -0.49999994039536
vn 0 1 0
vn 0.49999994039536 0 -0.86602544784546
vn 0 0 -1
vn -0.49999994039536 0 -0.86602544784546
vn -0.86602544784546 0 -0.49999994039536
vn -1 0 0
vn -0.86602544784546 0 0.49999994039536
vn -0.49999994039536 0 0.86602544784546
vn 0 0 1
vn 0.49999994039536 0 0.86602544784546
vn 0.86602544784546 0 0.49999994039536
# 15 normals

vt 0.5 0.5 0
vt 0 0.5 0
vt 0.06698729097843 0.75 0
vt 0 1 0
vt 0 0 0
vt 0.08333332836628 1 0
vt 0.08333332836628 0 0
vt 1 0.5 0
vt 0.93301272392273 0.75 0
vt 0.25 0.93301272392273 0
vt 0.16666665673256 1 0
vt 0.16666665673256 0 0
vt 0.75 0.93301272392273 0
vt 0.5 1 0
vt 0.25 1 0
vt 0.25 0 0
vt 0.33333331346512 1 0
vt 0.33333331346512 0 0
vt 0.41666662693024 1 0
vt 0.41666662693024 0 0
vt 0.5 0 0
vt 0.93301272392273 0.25 0
vt 0.58333325386047 1 0
vt 0.58333325386047 0 0
vt 0.06698729097843 0.25 0
vt 0.75 0.06698727607727 0
vt 0.66666662693024 1 0
vt 0.66666662693024 0 0
vt 0.25 0.06698727607727 0
vt 0.75 1 0
vt 0.75 0 0
vt 0.83333325386047 1 0
vt 0.83333325386047 0 0
vt 0.91666662693024 1 0
vt 0.91666662693024 0 0
vt 1 1 0
vt 1 0 0
# 37 texture coordinates

o Cylinder
usemtl Yellow
f 5/3/1 3/2/1 1/1/1
f 5/7/4 6/6/4 4/4/3 3/5/3
f 6/9/5 2/1/5 4/8/5
f 7/10/1 5/3/1 1/1/1
f 7/12/6 8/11/6 6/6/4 5/7/4
f 8/13/5 2/1/5 6/9/5
f 9/14/1 7/10/1 1/1/1
f 9/16/7 10/15/7 8/11/6 7/12/6
f 10/14/5 2/1/5 8/13/5
f 11/13/1 9/14/1 1/1/1
f 11/18/8 12/17/8 10/15/7 9/16/7
f 12/10/5 2/1/5 10/14/5
f 13/9/1 11/13/1 1/1/1
f 13/20/9 14/19/9 12/17/8 11/18/8
f 14/3/5 2/1/5 12/10/5
f 15/8/1 13/9/1 1/1/1
f 15/21/10 16/14/10 14/19/9 13/20/9
f 16/2/5 2/1/5 14/3/5
f 17/22/1 15/8/1 1/1/1
f 17/24/11 18/23/11 16/14/10 15/21/10
f 18/25/5 2/1/5 16/2/5
f 19/26/1 17/22/1 1/1/1
f 19/28/12 20/27/12 18/23/11 17/24/11
f 20/29/5 2/1/5 18/25/5
f 21/21/1 19/26/1 1/1/1
f 21/31/13 22/30/13 20/27/12 19/28/12
f 22/21/5 2/1/5 20/29/5
f 23/29/1 21/21/1 1/1/1
f 23/33/14 24/32/14 22/30/13 21/31/13
f 24/26/5 2/1/5 22/21/5
f 25/25/1 23/29/1 1/1/1
f 25/35/15 26/34/15 24/32/14 23/33/14
f 26/22/5 2/1/5 24/26/5
f 3/2/1 25/25/1 1/1/1
f 3/37/3 4/36/3 26/34/15 25/35/15
f 4/8/5 2/1/5 26/22/5

v 0 30 0
v 30 20 0
v 30 30 0
v 25.98076248168945 20 -15
v 25.98076248168945 30 -15
v 15 20 -25.98076248168945
v 15 30 -25.98076248168945
v 0 20 -30
v 0 30 -30
v -15 20 -25.98076248168945
v -15 30 -25.98076248168945
v -25.98076248168945 20 -15
v -25.98076248168945 30 -15
v -30 20 0
v -30 30 0
v -25.98076248168945 20 15
v -25.98076248168945 30 15
v -15 20 25.98076248168945
v -15 30 25.98076248168945
v -0.00000000000001 20 30
v -0.00000000000001 30 30
v 15 20 25.98076248168945
v 15 30 25.98076248168945
v 25.98076248168945 20 15
v 25.98076248168945 30 15
# 25 vertices

# 0 normal

# 0 texture coordinate

o Cylinder.1
usemtl Yellow
f 30/3/1 28/2/1 2/1/1
f 30/7/4 31/6/4 29/4/3 28/5/3
f 31/9/5 27/1/5 29/8/5
f 32/10/1 30/3/1 2/1/1
f 32/12/6 33/11/6 31/6/4 30/7/4
f 33/13/5 27/1/5 31/9/5
f 34/14/1 32/10/1 2/1/1
f 34/16/7 35/15/7 33/11/6 32/12/6
f 35/14/5 27/1/5 33/13/5
f 36/13/1 34/14/1 2/1/1
f 36/18/8 37/17/8 35/15/7 34/16/7
f 37/10/5 27/1/5 35/14/5
f 38/9/1 36/13/1 2/1/1
f 38/20/9 39/19/9 37/17/8 36/18/8
f 39/3/5 27/1/5 37/10/5
f 40/8/1 38/9/1 2/1/1
f 40/21/10 41/14/10 39/19/9 38/20/9
f 41/2/5 27/1/5 39/3/5
f 42/22/1 40/8/1 2/1/1
f 42/24/11 43/23/11 41/14/10 40/21/10
f 43/25/5 27/1/5 41/2/5
f 44/26/1 42/22/1 2/1/1
f 44/28/12 45/27/12 43/23/11 42/24/11
f 45/29/5 27/1/5 43/25/5
f 46/21/1 44/26/1 2/1/1
f 46/31/13 47/30/13 45/27/12 44/28/12
f 47/21/5 27/1/5 45/29/5
f 48/29/1 46/21/1 2/1/1
f 48/33/14 49/32/14 47/30/13 46/31/13
f 49/26/5 27/1/5 47/21/5
f 50/25/1 48/29/1 2/1/1
f 50/35/15 51/34/15 49/32/14 48/33/14
f 51/22/5 27/1/5 49/26/5
f 28/2/1 50/25/1 2/1/1
f 28/37/3 29/36/3 51/34/15 50/35/15
f 29/8/5 27/1/5 51/22/5

v 0 29.67038536071777 0
v 0 94.67038726806641 0
v 20 29.67038536071777 0
v 20 94.67038726806641 0
v 17.32050895690918 29.67038536071777 -10
v 17.32050895690918 94.67038726806641 -10
v 10 29.67038536071777 -17.32050895690918
v 10 94.67038726806641 -17.32050895690918
v 0 29.67038536071777 -20
v 0 94.67038726806641 -20
v -10 29.67038536071777 -17.32050895690918
v -10 94.67038726806641 -17.32050895690918
v -17.32050895690918 29.67038536071777 -10
v -17.32050895690918 94.67038726806641 -10
v -20 29.67038536071777 0
v -20 94.67038726806641 0
v -17.32050895690918 29.67038536071777 10
v -17.32050895690918 94.67038726806641 10
v -10 29.67038536071777 17.32050895690918
v -10 94.67038726806641 17.32050895690918
v 0 29.67038536071777 20
v 0 94.67038726806641 20
v 10 29.67038536071777 17.32050895690918
v 10 94.67038726806641 17.32050895690918
v 17.32050895690918 29.67038536071777 10
v 17.32050895690918 94.67038726806641 10
# 26 vertices

# 0 normal

# 0 texture coordinate

o Cylinder.2
usemtl Yellow
f 56/3/1 54/2/1 52/1/1
f 56/7/4 57/6/4 55/4/3 54/5/3
f 57/9/5 53/1/5 55/8/5
f 58/10/1 56/3/1 52/1/1
f 58/12/6 59/11/6 57/6/4 56/7/4
f 59/13/5 53/1/5 57/9/5
f 60/14/1 58/10/1 52/1/1
f 60/16/7 61/15/7 59/11/6 58/12/6
f 61/14/5 53/1/5 59/13/5
f 62/13/1 60/14/1 52/1/1
f 62/18/8 63/17/8 61/15/7 60/16/7
f 63/10/5 53/1/5 61/14/5
f 64/9/1 62/13/1 52/1/1
f 64/20/9 65/19/9 63/17/8 62/18/8
f 65/3/5 53/1/5 63/10/5
f 66/8/1 64/9/1 52/1/1
f 66/21/10 67/14/10 65/19/9 64/20/9
f 67/2/5 53/1/5 65/3/5
f 68/22/1 66/8/1 52/1/1
f 68/24/11 69/23/11 67/14/10 66/21/10
f 69/25/5 53/1/5 67/2/5
f 70/26/1 68/22/1 52/1/1
f 70/28/12 71/27/12 69/23/11 68/24/11
f 71/29/5 53/1/5 69/25/5
f 72/21/1 70/26/1 52/1/1
f 72/31/13 73/30/13 71/27/12 70/28/12
f 73/21/5 53/1/5 71/29/5
f 74/29/1 72/21/1 52/1/1
f 74/33/14 75/32/14 73/30/13 72/31/13
f 75/26/5 53/1/5 73/21/5
f 76/25/1 74/29/1 52/1/1
f 76/35/15 77/34/15 75/32/14 74/33/14
f 77/22/5 53/1/5 75/26/5
f 54/2/1 76/25/1 52/1/1
f 54/37/3 55/36/3 77/34/15 76/35/15
f 55/8/5 53/1/5 77/22/5

v -22.32074546813965 75.14339447021484 0
v 22.32074546813965 75.14339447021484 0
v -22.32074546813965 60.95147323608398 0
v 22.32074546813965 60.95147323608398 0
v -22.32074546813965 62.85283279418945 -7.09596014022827
v 22.32074546813965 62.85283279418945 -7.09596014022827
v -22.32074546813965 68.04743194580078 -12.29056358337402
v 22.32074546813965 68.04743194580078 -12.29056358337402
v -22.32074546813965 75.14339447021484 -14.19192028045654
v 22.32074546813965 75.14339447021484 -14.19192028045654
v -22.32074546813965 82.23935699462891 -12.29056358337402
v 22.32074546813965 82.23935699462891 -12.29056358337402
v -22.32074546813965 87.4339599609375 -7.09596014022827
v 22.32074546813965 87.4339599609375 -7.09596014022827
v -22.32074546813965 89.33531188964844 0
v 22.32074546813965 89.33531188964844 0
v -22.32074546813965 87.4339599609375 7.09596014022827
v 22.32074546813965 87.4339599609375 7.09596014022827
v -22.32074546813965 82.23935699462891 12.29056358337402
v 22.32074546813965 82.23935699462891 12.29056358337402
v -22.32074546813965 75.14339447021484 14.19192028045654
v 22.32074546813965 75.14339447021484 14.19192028045654
v -22.32074546813965 68.04743194580078 12.29056358337402
v 22.32074546813965 68.04743194580078 12.29056358337402
v -22.32074546813965 62.85283279418945 7.09596014022827
v 22.32074546813965 62.85283279418945 7.09596014022827
# 26 vertices

vn 0 -0.86602538824081 -0.5
vn 0 -0.50000017881393 -0.86602532863617
vn 0 0.5 -0.86602538824081
vn 0 0.86602556705475 -0.4999997317791
vn 0 0.86602556705475 0.4999997317791
vn 0 0.5 0.86602538824081
vn 0 -0.50000017881393 0.86602532863617
vn 0 -0.86602538824081 0.5
# 8 normals

# 0 texture coordinate

o Cylinder.7
usemtl Blue
f 82/3/10 80/2/10 78/1/10
f 82/7/16 83/6/16 81/4/1 80/5/1
f 83/9/3 79/1/3 81/8/3
f 84/10/10 82/3/10 78/1/10
f 84/12/17 85/11/17 83/6/16 82/7/16
f 85/13/3 79/1/3 83/9/3
f 86/14/10 84/10/10 78/1/10
f 86/16/7 87/15/7 85/11/17 84/12/17
f 87/14/3 79/1/3 85/13/3
f 88/13/10 86/14/10 78/1/10
f 88/18/18 89/17/18 87/15/7 86/16/7
f 89/10/3 79/1/3 87/14/3
f 90/9/10 88/13/10 78/1/10
f 90/20/19 91/19/19 89/17/18 88/18/18
f 91/3/3 79/1/3 89/10/3
f 92/8/10 90/9/10 78/1/10
f 92/21/5 93/14/5 91/19/19 90/20/19
f 93/2/3 79/1/3 91/3/3
f 94/22/10 92/8/10 78/1/10
f 94/24/20 95/23/20 93/14/5 92/21/5
f 95/25/3 79/1/3 93/2/3
f 96/26/10 94/22/10 78/1/10
f 96/28/21 97/27/21 95/23/20 94/24/20
f 97/29/3 79/1/3 95/25/3
f 98/21/10 96/26/10 78/1/10
f 98/31/13 99/30/13 97/27/21 96/28/21
f 99/21/3 79/1/3 97/29/3
f 100/29/10 98/21/10 78/1/10
f 100/33/22 101/32/22 99/30/13 98/31/13
f 101/26/3 79/1/3 99/21/3
f 102/25/10 100/29/10 78/1/10
f 102/35/23 103/34/23 101/32/22 100/33/22
f 103/22/3 79/1/3 101/26/3
f 80/2/10 102/25/10 78/1/10
f 80/37/1 81/36/1 103/34/23 102/35/23
f 81/8/3 79/1/3 103/22/3

v 0 94.63409423828125 0
v 0 112.55223846435547 0
v 20 94.63409423828125 0
v 11.15999984741211 109.61867523193359 0
v 17.32050895690918 94.63409423828125 -10
v 9.66484355926514 109.61867523193359 -5.57999992370605
v 10 94.63409423828125 -17.32050895690918
v 5.57999992370605 109.61867523193359 -9.66484355926514
v 0 94.63409423828125 -20
v 0 109.61867523193359 -11.15999984741211
v -10 94.63409423828125 -17.32050895690918
v -5.57999992370605 109.61867523193359 -9.66484355926514
v -17.32050895690918 94.63409423828125 -10
v -9.66484355926514 109.61867523193359 -5.57999992370605
v -20 94.63409423828125 0
v -11.15999984741211 109.61867523193359 0
v -17.32050895690918 94.63409423828125 10
v -9.66484355926514 109.61867523193359 5.57999992370605
v -10 94.63409423828125 17.32050895690918
v -5.57999992370605 109.61867523193359 9.66484355926514
v 0 94.63409423828125 20
v 0 109.61867523193359 11.15999984741211
v 10 94.63409423828125 17.32050895690918
v 5.57999992370605 109.61867523193359 9.66484355926514
v 17.32050895690918 94.63409423828125 10
v 9.66484355926514 109.61867523193359 5.57999992370605
# 26 vertices

vn 0.86129194498062 0.50811040401459 0.00000000764642
vn 0.74590069055557 0.50811040401459 -0.43064597249031
vn 0.25422751903534 0.96714442968369 0
vn 0 1 0.00000000514769
vn 0.22016748785973 0.96714442968369 -0.12711375951767
vn 0.43064600229263 0.50811040401459 -0.74590069055557
vn 0.12711375951767 0.96714442968369 -0.22016748785973
vn 0 0.50811040401459 -0.86129194498062
vn 0 0.96714442968369 -0.25422751903534
vn -0.43064597249031 0.50811040401459 -0.74590069055557
vn -0.12711375951767 0.96714442968369 -0.22016748785973
vn -0.74590069055557 0.50811040401459 -0.43064600229263
vn -0.22016748785973 0.96714442968369 -0.12711375951767
vn -0.86129194498062 0.50811040401459 -0.00000000764642
vn -0.25422751903534 0.96714442968369 0
vn -0.74590069055557 0.50811040401459 0.43064597249031
vn -0.22016748785973 0.96714442968369 0.12711375951767
vn -0.43064600229263 0.50811040401459 0.74590069055557
vn -0.12711375951767 0.96714442968369 0.22016748785973
vn 0 0.50811040401459 0.86129194498062
vn 0 0.96714442968369 0.25422751903534
vn 0.43064597249031 0.50811040401459 0.74590069055557
vn 0.12711375951767 0.96714442968369 0.22016748785973
vn 0.74590069055557 0.50811040401459 0.43064600229263
vn 0.22016748785973 0.96714442968369 0.12711375951767
# 25 normals

# 0 texture coordinate

o Cylinder.5
usemtl Blue
f 108/3/1 106/2/1 104/1/1
f 108/7/25 109/6/25 107/4/24 106/5/24
f 109/9/28 105/1/27 107/8/26
f 110/10/1 108/3/1 104/1/1
f 110/12/29 111/11/29 109/6/25 108/7/25
f 111/13/30 105/1/27 109/9/28
f 112/14/1 110/10/1 104/1/1
f 112/16/31 113/15/31 111/11/29 110/12/29
f 113/14/32 105/1/27 111/13/30
f 114/13/1 112/14/1 104/1/1
f 114/18/33 115/17/33 113/15/31 112/16/31
f 115/10/34 105/1/27 113/14/32
f 116/9/1 114/13/1 104/1/1
f 116/20/35 117/19/35 115/17/33 114/18/33
f 117/3/36 105/1/27 115/10/34
f 118/8/1 116/9/1 104/1/1
f 118/21/37 119/14/37 117/19/35 116/20/35
f 119/2/38 105/1/27 117/3/36
f 120/22/1 118/8/1 104/1/1
f 120/24/39 121/23/39 119/14/37 118/21/37
f 121/25/40 105/1/27 119/2/38
f 122/26/1 120/22/1 104/1/1
f 122/28/41 123/27/41 121/23/39 120/24/39
f 123/29/42 105/1/27 121/25/40
f 124/21/1 122/26/1 104/1/1
f 124/31/43 125/30/43 123/27/41 122/28/41
f 125/21/44 105/1/27 123/29/42
f 126/29/1 124/21/1 104/1/1
f 126/33/45 127/32/45 125/30/43 124/31/43
f 127/26/46 105/1/27 125/21/44
f 128/25/1 126/29/1 104/1/1
f 128/35/47 129/34/47 127/32/45 126/33/45
f 129/22/48 105/1/27 127/26/46
f 106/2/1 128/25/1 104/1/1
f 106/37/24 107/36/24 129/34/47 128/35/47
f 107/8/26 105/1/27 129/22/48

v -32.5 75.14339447021484 0
v 32.5 75.14339447021484 0
v -32.5 64.54206085205078 0
v 32.5 64.54206085205078 0
v -32.5 65.96236419677734 -5.30066823959351
v 32.5 65.96236419677734 -5.30066823959351
v -32.5 69.84272766113281 -9.18102645874023
v 32.5 69.84272766113281 -9.18102645874023
v -32.5 75.14339447021484 -10.60133647918701
v 32.5 75.14339447021484 -10.60133647918701
v -32.5 80.44406127929688 -9.18102645874023
v 32.5 80.44406127929688 -9.18102645874023
v -32.5 84.32442474365234 -5.30066823959351
v 32.5 84.32442474365234 -5.30066823959351
v -32.5 85.74472808837891 0
v 32.5 85.74472808837891 0
v -32.5 84.32442474365234 5.30066823959351
v 32.5 84.32442474365234 5.30066823959351
v -32.5 80.44406127929688 9.18102645874023
v 32.5 80.44406127929688 9.18102645874023
v -32.5 75.14339447021484 10.60133647918701
v 32.5 75.14339447021484 10.60133647918701
v -32.5 69.84272766113281 9.18102645874023
v 32.5 69.84272766113281 9.18102645874023
v -32.5 65.96236419677734 5.30066823959351
v 32.5 65.96236419677734 5.30066823959351
# 26 vertices

vn 0 -0.8660255074501 -0.49999976158142
vn 0 -0.49999976158142 -0.86602556705475
vn 0 0.49999976158142 -0.86602556705475
vn 0 0.8660255074501 -0.49999976158142
vn 0 0.8660255074501 0.49999976158142
vn 0 0.49999976158142 0.86602556705475
vn 0 -0.49999976158142 0.86602556705475
vn 0 -0.8660255074501 0.49999976158142
# 8 normals

# 0 texture coordinate

o Cylinder.3
usemtl Blue
f 134/3/10 132/2/10 130/1/10
f 134/7/49 135/6/49 133/4/1 132/5/1
f 135/9/3 131/1/3 133/8/3
f 136/10/10 134/3/10 130/1/10
f 136/12/50 137/11/50 135/6/49 134/7/49
f 137/13/3 131/1/3 135/9/3
f 138/14/10 136/10/10 130/1/10
f 138/16/7 139/15/7 137/11/50 136/12/50
f 139/14/3 131/1/3 137/13/3
f 140/13/10 138/14/10 130/1/10
f 140/18/51 141/17/51 139/15/7 138/16/7
f 141/10/3 131/1/3 139/14/3
f 142/9/10 140/13/10 130/1/10
f 142/20/52 143/19/52 141/17/51 140/18/51
f 143/3/3 131/1/3 141/10/3
f 144/8/10 142/9/10 130/1/10
f 144/21/5 145/14/5 143/19/52 142/20/52
f 145/2/3 131/1/3 143/3/3
f 146/22/10 144/8/10 130/1/10
f 146/24/53 147/23/53 145/14/5 144/21/5
f 147/25/3 131/1/3 145/2/3
f 148/26/10 146/22/10 130/1/10
f 148/28/54 149/27/54 147/23/53 146/24/53
f 149/29/3 131/1/3 147/25/3
f 150/21/10 148/26/10 130/1/10
f 150/31/13 151/30/13 149/27/54 148/28/54
f 151/21/3 131/1/3 149/29/3
f 152/29/10 150/21/10 130/1/10
f 152/33/55 153/32/55 151/30/13 150/31/13
f 153/26/3 131/1/3 151/21/3
f 154/25/10 152/29/10 130/1/10
f 154/35/56 155/34/56 153/32/55 152/33/55
f 155/22/3 131/1/3 153/26/3
f 132/2/10 154/25/10 130/1/10
f 132/37/1 133/36/1 155/34/56 154/35/56
f 133/8/3 131/1/3 155/22/3

v -39.19231033325195 75.14339447021484 0
v 39.19231033325195 75.14339447021484 0
v -39.19231033325195 69.47092437744141 0
v 39.19231033325195 69.47092437744141 0
v -39.19231033325195 72.30715942382812 -4.91250038146973
v 39.19231033325195 72.30715942382812 -4.91250038146973
v -39.19231033325195 77.97962951660156 -4.91250038146973
v 39.19231033325195 77.97962951660156 -4.91250038146973
v -39.19231033325195 80.81586456298828 0
v 39.19231033325195 80.81586456298828 0
v -39.19231033325195 77.97962951660156 4.91250038146973
v 39.19231033325195 77.97962951660156 4.91250038146973
v -39.19231033325195 72.30715942382812 4.91250038146973
v 39.19231033325195 72.30715942382812 4.91250038146973
# 14 vertices

vn 0 -0.86602526903152 -0.50000023841858
vn 0 0.86602526903152 -0.50000023841858
vn 0 0.86602526903152 0.50000023841858
# 3 normals

# 0 texture coordinate

o Cylinder.4
usemtl Blue
f 160/10/10 158/2/10 156/1/10
f 160/12/57 161/11/57 159/4/57 158/5/57
f 161/13/3 157/1/3 159/8/3
f 162/13/10 160/10/10 156/1/10
f 162/18/7 163/17/7 161/11/7 160/12/7
f 163/10/3 157/1/3 161/13/3
f 164/8/10 162/13/10 156/1/10
f 164/21/58 165/14/58 163/17/58 162/18/58
f 165/2/3 157/1/3 163/10/3
f 166/26/10 164/8/10 156/1/10
f 166/28/59 167/27/59 165/14/59 164/21/59
f 167/29/3 157/1/3 165/2/3
f 168/29/10 166/26/10 156/1/10
f 168/33/13 169/32/13 167/27/13 166/28/13
f 169/26/3 157/1/3 167/29/3
f 158/2/10 168/29/10 156/1/10
f 158/37/23 159/36/23 169/32/23 168/33/23
f 159/8/3 157/1/3 169/26/3

v 0 108.43534088134766 0
v 0 117.08248138427734 0
v 5.67246723175049 108.43534088134766 0
v 5.67246723175049 117.08248138427734 0
v 2.83623361587524 108.43534088134766 -4.91250038146973
v 2.83623361587524 117.08248138427734 -4.91250038146973
v -2.83623361587524 108.43534088134766 -4.91250038146973
v -2.83623361587524 117.08248138427734 -4.91250038146973
v -5.67246723175049 108.43534088134766 0
v -5.67246723175049 117.08248138427734 0
v -2.83623361587524 108.43534088134766 4.91250038146973
v -2.83623361587524 117.08248138427734 4.91250038146973
v 2.83623361587524 108.43534088134766 4.91250038146973
v 2.83623361587524 117.08248138427734 4.91250038146973
# 14 vertices

vn 0.86602538824081 0 -0.50000005960464
vn -0.86602538824081 0 -0.50000005960464
vn -0.86602538824081 0 0.50000005960464
vn 0.86602538824081 0 0.5
# 4 normals

# 0 texture coordinate

o Cylinder.6
usemtl Blue
f 174/10/1 172/2/1 170/1/1
f 174/12/60 175/11/60 173/4/60 172/5/60
f 175/13/5 171/1/5 173/8/5
f 176/13/1 174/10/1 170/1/1
f 176/18/7 177/17/7 175/11/7 174/12/7
f 177/10/5 171/1/5 175/13/5
f 178/8/1 176/13/1 170/1/1
f 178/21/61 179/14/61 177/17/61 176/18/61
f 179/2/5 171/1/5 177/10/5
f 180/26/1 178/8/1 170/1/1
f 180/28/62 181/27/62 179/14/62 178/21/62
f 181/29/5 171/1/5 179/2/5
f 182/29/1 180/26/1 170/1/1
f 182/33/13 183/32/13 181/27/13 180/28/13
f 183/26/5 171/1/5 181/29/5
f 172/2/1 182/29/1 170/1/1
f 172/37/63 173/36/63 183/32/63 182/33/63
f 173/8/5 171/1/5 183/26/5

